# Blender 5.0.1
# www.blender.org
mtllib PfadNeu.mtl
o pfad
v -27.010265 1.030836 -0.744076
v -27.043163 1.063778 -0.745598
v -27.088116 1.075836 -0.747684
v -27.133068 1.063778 -0.749771
v -27.165974 1.030836 -0.751297
v -27.178013 0.985836 -0.751854
v -27.165974 0.940836 -0.751297
v -27.133068 0.907893 -0.749771
v -27.088116 0.895836 -0.747684
v -27.043163 0.907893 -0.745598
v -27.010265 0.940835 -0.744076
v -26.998211 0.985835 -0.743515
v -27.878986 1.030836 17.970860
v -27.911755 1.063778 17.974224
v -27.956524 1.075836 17.978819
v -28.001293 1.063778 17.983418
v -28.034061 1.030836 17.986782
v -28.046055 0.985836 17.988012
v -28.034061 0.940836 17.986782
v -28.001293 0.907893 17.983418
v -27.956524 0.895836 17.978819
v -27.911755 0.907893 17.974224
v -27.878986 0.940835 17.970860
v -27.866993 0.985835 17.969629
v -25.997051 1.030836 25.310390
v -26.029781 1.063778 25.314085
v -26.074497 1.075836 25.319130
v -26.119221 1.063778 25.324173
v -26.151951 1.030836 25.327869
v -26.163929 0.985836 25.329220
v -26.151951 0.940836 25.327869
v -26.119221 0.907893 25.324173
v -26.074497 0.895836 25.319130
v -26.029781 0.907893 25.314085
v -25.997051 0.940835 25.310390
v -25.985065 0.985835 25.309038
v -26.659069 1.030836 49.463097
v -26.680965 1.063778 49.487709
v -26.710888 1.075836 49.521320
v -26.740803 1.063778 49.554932
v -26.762699 1.030836 49.579544
v -26.770718 0.985836 49.588554
v -26.762699 0.940836 49.579544
v -26.740803 0.907893 49.554939
v -26.710888 0.895836 49.521320
v -26.680965 0.907893 49.487709
v -26.659069 0.940835 49.463097
v -26.651051 0.985835 49.454090
v -3.275654 1.030836 46.096992
v -3.251266 1.063778 46.119137
v -3.217953 1.075836 46.149387
v -3.184635 1.063778 46.179638
v -3.160252 1.030836 46.201786
v -3.151321 0.985836 46.209892
v -3.160252 0.940836 46.201786
v -3.184635 0.907893 46.179638
v -3.217953 0.895836 46.149387
v -3.251266 0.907893 46.119137
v -3.275654 0.940835 46.096992
v -3.284580 0.985835 46.088882
v -3.131577 1.030836 42.631687
v -3.099602 1.063778 42.639606
v -3.055923 1.075836 42.650421
v -3.012241 1.063778 42.661240
v -2.980263 1.030836 42.669155
v -2.968559 0.985836 42.672054
v -2.980263 0.940836 42.669155
v -3.012241 0.907893 42.661240
v -3.055923 0.895836 42.650421
v -3.099602 0.907893 42.639606
v -3.131577 0.940835 42.631687
v -3.143280 0.985835 42.628792
v 8.150709 1.030836 18.615475
v 8.182594 1.063778 18.623753
v 8.226152 1.075836 18.635054
v 8.269707 1.063778 18.646357
v 8.301594 1.030836 18.654633
v 8.313269 0.985836 18.657661
v 8.301594 0.940836 18.654633
v 8.269707 0.907893 18.646357
v 8.226152 0.895836 18.635054
v 8.182594 0.907893 18.623753
v 8.150709 0.940835 18.615475
v 8.139034 0.985835 18.612446
v 8.335661 1.030836 16.351105
v 8.357426 1.063778 16.326378
v 8.387157 1.075836 16.292599
v 8.416889 1.063778 16.258820
v 8.438656 1.030836 16.234093
v 8.446623 0.985836 16.225042
v 8.438656 0.940836 16.234093
v 8.416889 0.907893 16.258820
v 8.387157 0.895836 16.292599
v 8.357426 0.907893 16.326378
v 8.335661 0.940835 16.351105
v 8.327694 0.985835 16.360157
v -2.275085 1.030836 18.487360
v -2.278774 1.063778 18.454624
v -2.283813 1.075836 18.409908
v -2.288853 1.063778 18.365191
v -2.292542 1.030836 18.332455
v -2.293888 0.985836 18.320475
v -2.292542 0.940836 18.332455
v -2.288853 0.907893 18.365191
v -2.283813 0.895836 18.409908
v -2.278774 0.907893 18.454624
v -2.275085 0.940835 18.487360
v -2.273739 0.985835 18.499342
v -10.307621 1.030836 18.691942
v -10.284142 1.063778 18.668833
v -10.252075 1.075836 18.637268
v -10.220001 1.063778 18.605700
v -10.196526 1.030836 18.582590
v -10.187935 0.985836 18.574133
v -10.196526 0.940836 18.582590
v -10.220001 0.907893 18.605700
v -10.252075 0.895836 18.637268
v -10.284142 0.907893 18.668833
v -10.307621 0.940835 18.691942
v -10.316212 0.985835 18.700401
v -9.473991 1.030836 -0.186760
v -9.450935 1.063778 -0.163231
v -9.419437 1.075836 -0.131096
v -9.387936 1.063778 -0.098957
v -9.364880 1.030836 -0.075428
v -9.356441 0.985836 -0.066818
v -9.364880 0.940836 -0.075428
v -9.387936 0.907893 -0.098957
v -9.419437 0.895836 -0.131096
v -9.450935 0.907893 -0.163231
v -9.473991 0.940835 -0.186760
v -9.482433 0.985835 -0.195374
v 3.432789 1.030836 -0.520569
v 3.434017 1.063778 -0.487652
v 3.435696 1.075836 -0.442684
v 3.437374 1.063778 -0.397713
v 3.438602 1.030836 -0.364792
v 3.439049 0.985836 -0.352745
v 3.438602 0.940836 -0.364792
v 3.437374 0.907893 -0.397713
v 3.435696 0.895836 -0.442684
v 3.434017 0.907893 -0.487652
v 3.432789 0.940835 -0.520569
v 3.432339 0.985835 -0.532623
v 8.364807 1.030836 -0.746601
v 8.389063 1.063778 -0.724312
v 8.422203 1.075836 -0.693871
v 8.455341 1.063778 -0.663422
v 8.479601 1.030836 -0.641136
v 8.488480 0.985836 -0.632977
v 8.479601 0.940836 -0.641136
v 8.455341 0.907893 -0.663422
v 8.422203 0.895836 -0.693871
v 8.389063 0.907893 -0.724312
v 8.364807 0.940835 -0.746601
v 8.355927 0.985835 -0.754757
v 8.277969 1.030836 -3.300537
v 8.301876 1.063778 -3.277870
v 8.334530 1.075836 -3.246910
v 8.367184 1.063778 -3.215946
v 8.391088 1.030836 -3.193283
v 8.399837 0.985836 -3.184986
v 8.391088 0.940836 -3.193283
v 8.367184 0.907893 -3.215946
v 8.334530 0.895836 -3.246910
v 8.301876 0.907893 -3.277870
v 8.277969 0.940835 -3.300537
v 8.269218 0.985835 -3.308834
v 37.163101 1.030836 -3.847321
v 37.186623 1.063778 -3.824257
v 37.218754 1.075836 -3.792751
v 37.250885 1.063778 -3.761246
v 37.274406 1.030836 -3.738182
v 37.283012 0.985836 -3.729744
v 37.274406 0.940836 -3.738182
v 37.250885 0.907893 -3.761246
v 37.218754 0.895836 -3.792751
v 37.186623 0.907893 -3.824257
v 37.163101 0.940835 -3.847321
v 37.154491 0.985835 -3.855766
v 37.131580 1.030836 -16.960033
v 37.164505 1.063778 -16.959007
v 37.209480 1.075836 -16.957603
v 37.254463 1.063778 -16.956200
v 37.287388 1.030836 -16.955170
v 37.299438 0.985836 -16.954792
v 37.287388 0.940836 -16.955170
v 37.254463 0.907893 -16.956200
v 37.209480 0.895836 -16.957603
v 37.164505 0.907893 -16.959007
v 37.131580 0.940835 -16.960033
v 37.119530 0.985835 -16.960407
v 38.462353 1.030836 -37.485168
v 38.482803 1.063778 -37.510994
v 38.510742 1.075836 -37.546272
v 38.538681 1.063778 -37.581551
v 38.559132 1.030836 -37.607376
v 38.566616 0.985836 -37.616829
v 38.559132 0.940836 -37.607376
v 38.538681 0.907893 -37.581551
v 38.510742 0.895836 -37.546272
v 38.482803 0.907893 -37.510994
v 38.462353 0.940835 -37.485168
v 38.454868 0.985835 -37.475723
v 30.246891 1.030836 -34.965622
v 30.249592 1.063778 -34.998451
v 30.253279 1.075836 -35.043304
v 30.256968 1.063778 -35.088150
v 30.259666 1.030836 -35.120979
v 30.260656 0.985836 -35.132996
v 30.259666 0.940836 -35.120979
v 30.256968 0.907893 -35.088150
v 30.253279 0.895836 -35.043304
v 30.249592 0.907893 -34.998451
v 30.246891 0.940835 -34.965622
v 30.245905 0.985835 -34.953606
v 27.256001 1.030836 -36.437439
v 27.264086 1.063778 -36.469368
v 27.275133 1.075836 -36.512993
v 27.286177 1.063778 -36.556618
v 27.294266 1.030836 -36.588554
v 27.297226 0.985836 -36.600235
v 27.294266 0.940836 -36.588554
v 27.286177 0.907893 -36.556618
v 27.275133 0.895836 -36.512993
v 27.264086 0.907893 -36.469368
v 27.256001 0.940835 -36.437439
v 27.253040 0.985835 -36.425751
v 8.055674 1.030836 -37.181793
v 8.032913 1.063778 -37.205605
v 8.001816 1.075836 -37.238136
v 7.970720 1.063778 -37.270660
v 7.947958 1.030836 -37.294472
v 7.939623 0.985836 -37.303192
v 7.947958 0.940836 -37.294472
v 7.970720 0.907893 -37.270660
v 8.001816 0.895836 -37.238136
v 8.032913 0.907893 -37.205605
v 8.055674 0.940835 -37.181793
v 8.064009 0.985835 -37.173080
v 8.005501 1.030836 -27.659561
v 7.973881 1.063778 -27.668816
v 7.930696 1.075836 -27.681450
v 7.887508 1.063778 -27.694092
v 7.855892 1.030836 -27.703346
v 7.844320 0.985836 -27.706734
v 7.855892 0.940836 -27.703346
v 7.887508 0.907893 -27.694092
v 7.930696 0.895836 -27.681450
v 7.973881 0.907893 -27.668816
v 8.005501 0.940835 -27.659561
v 8.017073 0.985835 -27.656166
v -9.440601 1.030836 -0.056080
v -9.431656 1.063778 -0.087784
v -9.419437 1.075836 -0.131096
v -9.407215 1.063778 -0.174400
v -9.398270 1.030836 -0.206108
v -9.394997 0.985836 -0.217712
v -9.398270 0.940836 -0.206108
v -9.407215 0.907893 -0.174400
v -9.419437 0.895836 -0.131096
v -9.431656 0.907893 -0.087784
v -9.440601 0.940835 -0.056080
v -9.443874 0.985835 -0.044476
v -9.683716 1.030836 -15.775707
v -9.651314 1.063778 -15.781616
v -9.607040 1.075836 -15.789688
v -9.562767 1.063778 -15.797760
v -9.530361 1.030836 -15.803665
v -9.518501 0.985836 -15.805832
v -9.530361 0.940836 -15.803673
v -9.562767 0.907893 -15.797760
v -9.607040 0.895836 -15.789688
v -9.651314 0.907893 -15.781616
v -9.683716 0.940835 -15.775707
v -9.695576 0.985835 -15.773544
v -14.043846 1.030836 -27.861885
v -14.016918 1.063778 -27.842903
v -13.980152 1.075836 -27.816971
v -13.943375 1.063778 -27.791039
v -13.916447 1.030836 -27.772057
v -13.906593 0.985836 -27.765106
v -13.916447 0.940836 -27.772057
v -13.943375 0.907893 -27.791039
v -13.980152 0.895836 -27.816971
v -14.016918 0.907893 -27.842903
v -14.043846 0.940835 -27.861885
v -14.053703 0.985835 -27.868835
v 7.984516 1.030836 -27.737831
v 7.961767 1.063778 -27.714005
v 7.930696 1.075836 -27.681450
v 7.899622 1.063778 -27.648903
v 7.876875 1.030836 -27.625076
v 7.868547 0.985836 -27.616356
v 7.876875 0.940836 -27.625076
v 7.899622 0.907893 -27.648903
v 7.930696 0.895836 -27.681450
v 7.961767 0.907893 -27.714005
v 7.984516 0.940835 -27.737831
v 7.992842 0.985835 -27.746552
v 8.535175 1.030836 -17.682049
v 8.502243 1.063778 -17.681324
v 8.457249 1.075836 -17.680332
v 8.412262 1.063778 -17.679340
v 8.379326 1.030836 -17.678612
v 8.367271 0.985836 -17.678349
v 8.379326 0.940836 -17.678612
v 8.412262 0.907893 -17.679340
v 8.457249 0.895836 -17.680332
v 8.502243 0.907893 -17.681324
v 8.535175 0.940835 -17.682049
v 8.547230 0.985835 -17.682312
v 8.412466 1.030836 -3.246246
v 8.379528 1.063778 -3.246529
v 8.334530 1.075836 -3.246910
v 8.289528 1.063778 -3.247292
v 8.256592 1.030836 -3.247574
v 8.244534 0.985836 -3.247673
v 8.256592 0.940836 -3.247574
v 8.289528 0.907893 -3.247292
v 8.334530 0.895836 -3.246910
v 8.379528 0.907893 -3.246529
v 8.412466 0.940835 -3.246246
v 8.424524 0.985835 -3.246143
v 8.500145 1.030836 -0.693707
v 8.467205 1.063778 -0.693775
v 8.422203 1.075836 -0.693871
v 8.377203 1.063778 -0.693962
v 8.344261 1.030836 -0.694031
v 8.332205 0.985836 -0.694054
v 8.344261 0.940836 -0.694031
v 8.377203 0.907893 -0.693962
v 8.422203 0.895836 -0.693871
v 8.467205 0.907893 -0.693775
v 8.500145 0.940835 -0.693707
v 8.512201 0.985835 -0.693684
v 8.442259 1.030836 16.237473
v 8.418970 1.063778 16.260773
v 8.387157 1.075836 16.292599
v 8.355343 1.063778 16.324427
v 8.332058 1.030836 16.347725
v 8.323532 0.985836 16.356255
v 8.332058 0.940836 16.347725
v 8.355343 0.907893 16.324427
v 8.387157 0.895836 16.292599
v 8.418970 0.907893 16.260773
v 8.442259 0.940835 16.237473
v 8.450779 0.985835 16.228943
v 37.708836 1.030836 16.163324
v 37.732475 1.063778 16.186268
v 37.764767 1.075836 16.217611
v 37.797058 1.063778 16.248953
v 37.820694 1.030836 16.271896
v 37.829346 0.985836 16.280294
v 37.820694 0.940836 16.271896
v 37.797058 0.907893 16.248953
v 37.764767 0.895836 16.217611
v 37.732475 0.907893 16.186268
v 37.708836 0.940835 16.163324
v 37.700184 0.985835 16.154926
v 37.140839 1.030836 -3.790630
v 37.173767 1.063778 -3.791523
v 37.218754 1.075836 -3.792751
v 37.263737 1.063778 -3.793980
v 37.296665 1.030836 -3.794880
v 37.308720 0.985836 -3.795208
v 37.296665 0.940836 -3.794880
v 37.263737 0.907893 -3.793980
v 37.218754 0.895836 -3.792751
v 37.173767 0.907893 -3.791523
v 37.140839 0.940835 -3.790630
v 37.128784 0.985835 -3.790298
v -3.133823 1.030836 42.647942
v -3.100899 1.063778 42.648991
v -3.055923 1.075836 42.650421
v -3.010944 1.063778 42.651855
v -2.978020 1.030836 42.652905
v -2.965965 0.985836 42.653290
v -2.978020 0.940836 42.652905
v -3.010944 0.907893 42.651855
v -3.055923 0.895836 42.650421
v -3.100899 0.907893 42.648991
v -3.133823 0.940835 42.647942
v -3.145874 0.985835 42.647556
v -2.360718 1.030836 18.397243
v -2.328217 1.063778 18.402596
v -2.283813 1.075836 18.409908
v -2.239410 1.063778 18.417219
v -2.206905 1.030836 18.422571
v -2.195007 0.985836 18.424530
v -2.206905 0.940836 18.422571
v -2.239410 0.907893 18.417219
v -2.283813 0.895836 18.409908
v -2.328217 0.907893 18.402596
v -2.360718 0.940835 18.397243
v -2.372616 0.985835 18.395285
v 3.360985 1.030836 -0.464897
v 3.392563 1.063778 -0.455509
v 3.435696 1.075836 -0.442684
v 3.478828 1.063778 -0.429859
v 3.510406 1.030836 -0.420471
v 3.521965 0.985836 -0.417030
v 3.510406 0.940836 -0.420471
v 3.478828 0.907893 -0.429859
v 3.435696 0.895836 -0.442684
v 3.392563 0.907893 -0.455509
v 3.360985 0.940835 -0.464897
v 3.349422 0.985835 -0.468338
v 8.382416 1.030836 -17.702133
v 8.414049 1.063778 -17.692917
v 8.457249 1.075836 -17.680332
v 8.500454 1.063778 -17.667747
v 8.532082 1.030836 -17.658531
v 8.543661 0.985836 -17.655159
v 8.532082 0.940836 -17.658531
v 8.500454 0.907893 -17.667747
v 8.457249 0.895836 -17.680332
v 8.414049 0.907893 -17.692917
v 8.382416 0.940835 -17.702133
v 8.370842 0.985835 -17.705505
v -27.085400 1.030836 -0.825577
v -27.086552 1.063778 -0.792656
v -27.088116 1.075836 -0.747684
v -27.089680 1.063778 -0.702709
v -27.090832 1.030836 -0.669788
v -27.091259 0.985836 -0.657738
v -27.090832 0.940836 -0.669788
v -27.089680 0.907893 -0.702709
v -27.088116 0.895836 -0.747684
v -27.086552 0.907893 -0.792656
v -27.085400 0.940835 -0.825577
v -27.084972 0.985835 -0.837627
v -9.416718 1.030836 -0.208992
v -9.417866 1.063778 -0.176064
v -9.419437 1.075836 -0.131096
v -9.421005 1.063778 -0.086121
v -9.422153 1.030836 -0.053200
v -9.422577 0.985836 -0.041145
v -9.422153 0.940836 -0.053200
v -9.421005 0.907893 -0.086121
v -9.419437 0.895836 -0.131096
v -9.417866 0.907893 -0.176064
v -9.416718 0.940835 -0.208992
v -9.416298 0.985835 -0.221039
v -10.254971 1.030836 18.715155
v -10.253746 1.063778 18.682236
v -10.252075 1.075836 18.637268
v -10.250401 1.063778 18.592297
v -10.249172 1.030836 18.559380
v -10.248730 0.985836 18.547329
v -10.249172 0.940836 18.559380
v -10.250401 0.907893 18.592297
v -10.252075 0.895836 18.637268
v -10.253746 0.907893 18.682236
v -10.254971 0.940835 18.715155
v -10.255417 0.985835 18.727203
v -27.959415 1.030836 18.056709
v -27.958195 1.063778 18.023790
v -27.956524 1.075836 17.978819
v -27.954853 1.063778 17.933851
v -27.953632 1.030836 17.900930
v -27.953175 0.985836 17.888882
v -27.953632 0.940836 17.900930
v -27.954853 0.907893 17.933851
v -27.956524 0.895836 17.978819
v -27.958195 0.907893 18.023790
v -27.959415 0.940835 18.056709
v -27.959866 0.985835 18.068758
v -3.232090 1.030836 46.072739
v -3.226116 1.063778 46.105133
v -3.217953 1.075836 46.149387
v -3.209785 1.063778 46.193642
v -3.203812 1.030836 46.226036
v -3.201626 0.985836 46.237892
v -3.203812 0.940836 46.226036
v -3.209785 0.907893 46.193642
v -3.217953 0.895836 46.149387
v -3.226116 0.907893 46.105133
v -3.232090 0.940835 46.072739
v -3.234276 0.985835 46.060883
v 8.236645 1.030836 43.975231
v 8.261990 1.063778 43.996269
v 8.296616 1.075836 44.025009
v 8.331244 1.063778 44.053753
v 8.356590 1.030836 44.074791
v 8.365868 0.985836 44.082489
v 8.356590 0.940836 44.074791
v 8.331244 0.907893 44.053753
v 8.296616 0.895836 44.025009
v 8.261990 0.907893 43.996269
v 8.236645 0.940835 43.975231
v 8.227365 0.985835 43.967529
v 8.148207 1.030836 18.635269
v 8.181152 1.063778 18.635178
v 8.226152 1.075836 18.635054
v 8.271151 1.063778 18.634930
v 8.304094 1.030836 18.634838
v 8.316151 0.985836 18.634804
v 8.304094 0.940836 18.634838
v 8.271151 0.907893 18.634930
v 8.226152 0.895836 18.635054
v 8.181152 0.907893 18.635178
v 8.148207 0.940835 18.635269
v 8.136154 0.985835 18.635303
v 37.842632 1.030836 16.214201
v 37.809723 1.063778 16.215641
v 37.764767 1.075836 16.217611
v 37.719810 1.063778 16.219580
v 37.686897 1.030836 16.221020
v 37.674850 0.985836 16.221548
v 37.686897 0.940836 16.221020
v 37.719810 0.907893 16.219580
v 37.764767 0.895836 16.217611
v 37.809723 0.907893 16.215641
v 37.842632 0.940835 16.214201
v 37.854679 0.985835 16.213673
v 38.828747 1.030836 39.185612
v 38.803215 1.063778 39.164795
v 38.768337 1.075836 39.136360
v 38.733459 1.063778 39.107925
v 38.707928 1.030836 39.087109
v 38.698582 0.985836 39.079491
v 38.707928 0.940836 39.087109
v 38.733459 0.907893 39.107925
v 38.768337 0.895836 39.136360
v 38.803215 0.907893 39.164795
v 38.828747 0.940835 39.185612
v 38.838093 0.985835 39.193230
v 8.308964 1.030836 44.101967
v 8.303745 1.063778 44.069443
v 8.296616 1.075836 44.025009
v 8.289488 1.063778 43.980579
v 8.284271 1.030836 43.948051
v 8.282360 0.985836 43.936146
v 8.284271 0.940836 43.948051
v 8.289488 0.907893 43.980579
v 8.296616 0.895836 44.025009
v 8.303745 0.907893 44.069443
v 8.308964 0.940835 44.101967
v 8.310873 0.985835 44.113873
vn 0.9652 0.2575 0.0448
vn 0.7083 0.7051 0.0329
vn 0.2599 0.9656 0.0121
vn -0.2599 0.9656 -0.0120
vn -0.7083 0.7051 -0.0328
vn -0.9652 0.2575 -0.0447
vn -0.9652 -0.2575 -0.0447
vn -0.7083 -0.7051 -0.0328
vn -0.2599 -0.9656 -0.0120
vn 0.2599 -0.9656 0.0121
vn 0.7083 -0.7051 0.0329
vn 0.9652 -0.2575 0.0448
vn 0.9363 0.2564 -0.2401
vn 0.6885 0.7034 -0.1765
vn 0.2531 0.9653 -0.0649
vn -0.2531 0.9653 0.0649
vn -0.6885 0.7034 0.1765
vn -0.9363 0.2564 0.2400
vn -0.9363 -0.2564 0.2400
vn -0.6885 -0.7034 0.1765
vn -0.2531 -0.9653 0.0649
vn 0.2531 -0.9653 -0.0649
vn 0.6885 -0.7034 -0.1765
vn 0.9363 -0.2564 -0.2401
vn 0.9765 0.2139 0.0268
vn 0.7740 0.6328 0.0210
vn 0.3113 0.9503 0.0083
vn -0.3112 0.9503 -0.0081
vn -0.7738 0.6331 -0.0197
vn -0.9765 0.2142 -0.0245
vn -0.9765 -0.2142 -0.0245
vn -0.7738 -0.6331 -0.0197
vn -0.3112 -0.9503 -0.0081
vn 0.3113 -0.9503 0.0083
vn 0.7740 -0.6328 0.0210
vn 0.9765 -0.2139 0.0268
vn -0.1400 0.1863 -0.9725
vn -0.1162 0.5777 -0.8079
vn -0.0503 0.9352 -0.3505
vn 0.0503 0.9352 0.3505
vn 0.1157 0.5778 0.8079
vn 0.1392 0.1863 0.9726
vn 0.1392 -0.1863 0.9726
vn 0.1157 -0.5778 0.8079
vn 0.0503 -0.9352 0.3505
vn -0.0503 -0.9352 -0.3505
vn -0.1162 -0.5777 -0.8079
vn -0.1400 -0.1863 -0.9725
vn -0.9729 0.2279 -0.0401
vn -0.7522 0.6581 -0.0320
vn -0.2925 0.9562 -0.0131
vn 0.2921 0.9563 0.0139
vn 0.7508 0.6594 0.0375
vn 0.9722 0.2290 0.0499
vn 0.9722 -0.2290 0.0499
vn 0.7508 -0.6594 0.0375
vn 0.2921 -0.9563 0.0139
vn -0.2925 -0.9562 -0.0131
vn -0.7522 -0.6581 -0.0320
vn -0.9729 -0.2279 -0.0401
vn -0.8753 0.2544 -0.4112
vn -0.6459 0.7006 -0.3034
vn -0.2383 0.9647 -0.1119
vn 0.2383 0.9647 0.1119
vn 0.6459 0.7006 0.3034
vn 0.8753 0.2544 0.4112
vn 0.8753 -0.2544 0.4112
vn 0.6459 -0.7006 0.3034
vn 0.2383 -0.9647 0.1119
vn -0.2383 -0.9647 -0.1119
vn -0.6459 -0.7006 -0.3034
vn -0.8753 -0.2544 -0.4112
vn -0.9749 0.2074 -0.0806
vn -0.7814 0.6210 -0.0616
vn -0.3189 0.9475 -0.0231
vn 0.3182 0.9478 0.0207
vn 0.7802 0.6238 0.0461
vn 0.9763 0.2094 0.0544
vn 0.9763 -0.2094 0.0544
vn 0.7802 -0.6238 0.0461
vn 0.3182 -0.9478 0.0207
vn -0.3189 -0.9475 -0.0231
vn -0.7814 -0.6210 -0.0616
vn -0.9749 -0.2074 -0.0806
vn 0.1932 0.2098 0.9585
vn 0.1536 0.6252 0.7652
vn 0.0619 0.9484 0.3109
vn -0.0614 0.9485 -0.3107
vn -0.1501 0.6261 -0.7651
vn -0.1874 0.2104 -0.9595
vn -0.1874 -0.2104 -0.9595
vn -0.1501 -0.6261 -0.7651
vn -0.0614 -0.9485 -0.3107
vn 0.0619 -0.9484 0.3109
vn 0.1536 -0.6252 0.7652
vn 0.1932 -0.2098 0.9585
vn 0.0246 0.2195 0.9753
vn 0.0200 0.6430 0.7656
vn 0.0084 0.9526 0.3041
vn -0.0090 0.9525 -0.3043
vn -0.0237 0.6422 -0.7661
vn -0.0311 0.2190 -0.9752
vn -0.0311 -0.2190 -0.9752
vn -0.0237 -0.6422 -0.7661
vn -0.0090 -0.9525 -0.3043
vn 0.0084 -0.9526 0.3041
vn 0.0200 -0.6430 0.7656
vn 0.0246 -0.2195 0.9753
vn -0.9816 0.1858 -0.0433
vn -0.8162 0.5767 -0.0361
vn -0.3545 0.9349 -0.0157
vn 0.3545 0.9349 0.0157
vn 0.8161 0.5767 0.0363
vn 0.9816 0.1858 0.0438
vn 0.9816 -0.1858 0.0438
vn 0.8162 -0.5767 0.0363
vn 0.3545 -0.9349 0.0157
vn -0.3545 -0.9349 -0.0157
vn -0.8162 -0.5767 -0.0361
vn -0.9816 -0.1858 -0.0433
vn -0.0253 0.2260 -0.9738
vn -0.0193 0.6546 -0.7557
vn -0.0073 0.9553 -0.2956
vn 0.0070 0.9552 0.2957
vn 0.0174 0.6542 0.7561
vn 0.0219 0.2258 0.9739
vn 0.0219 -0.2258 0.9739
vn 0.0174 -0.6542 0.7561
vn 0.0070 -0.9552 0.2957
vn -0.0073 -0.9553 -0.2956
vn -0.0193 -0.6546 -0.7557
vn -0.0253 -0.2260 -0.9738
vn -0.0443 0.2233 -0.9738
vn -0.0355 0.6499 -0.7592
vn -0.0146 0.9543 -0.2984
vn 0.0154 0.9544 0.2981
vn 0.0408 0.6510 0.7580
vn 0.0537 0.2240 0.9731
vn 0.0537 -0.2240 0.9731
vn 0.0408 -0.6510 0.7580
vn 0.0154 -0.9544 0.2981
vn -0.0146 -0.9543 -0.2984
vn -0.0355 -0.6499 -0.7592
vn -0.0443 -0.2233 -0.9738
vn -0.9819 0.1863 0.0334
vn -0.8159 0.5775 0.0278
vn -0.3541 0.9351 0.0121
vn 0.3541 0.9351 -0.0122
vn 0.8161 0.5773 -0.0282
vn 0.9819 0.1862 -0.0341
vn 0.9819 -0.1862 -0.0341
vn 0.8161 -0.5773 -0.0282
vn 0.3541 -0.9351 -0.0122
vn -0.3541 -0.9351 0.0121
vn -0.8159 -0.5775 0.0278
vn -0.9819 -0.1863 0.0334
vn -0.0186 0.1863 -0.9823
vn -0.0154 0.5776 -0.8162
vn -0.0067 0.9352 -0.3541
vn 0.0067 0.9352 0.3541
vn 0.0154 0.5776 0.8162
vn 0.0185 0.1862 0.9823
vn 0.0185 -0.1862 0.9823
vn 0.0154 -0.5776 0.8162
vn 0.0067 -0.9352 0.3541
vn -0.0067 -0.9352 -0.3541
vn -0.0154 -0.5776 -0.8162
vn -0.0186 -0.1863 -0.9823
vn -0.9747 0.2235 0.0025
vn -0.7597 0.6503 0.0016
vn -0.2986 0.9544 0.0004
vn 0.2985 0.9544 -0.0001
vn 0.7593 0.6507 0.0005
vn 0.9746 0.2238 0.0011
vn 0.9746 -0.2238 0.0011
vn 0.7593 -0.6507 0.0005
vn 0.2985 -0.9544 -0.0001
vn -0.2986 -0.9544 0.0004
vn -0.7597 -0.6503 0.0016
vn -0.9747 -0.2235 0.0025
vn -0.9766 0.2056 -0.0634
vn -0.7852 0.6171 -0.0506
vn -0.3225 0.9463 -0.0205
vn 0.3224 0.9464 0.0202
vn 0.7849 0.6177 0.0486
vn 0.9767 0.2060 0.0600
vn 0.9767 -0.2060 0.0600
vn 0.7849 -0.6177 0.0486
vn 0.3224 -0.9464 0.0202
vn -0.3225 -0.9463 -0.0205
vn -0.7852 -0.6171 -0.0506
vn -0.9766 -0.2056 -0.0634
vn 0.2877 0.1965 0.9373
vn 0.2342 0.5993 0.7655
vn 0.0980 0.9416 0.3221
vn -0.0972 0.9418 -0.3218
vn -0.2299 0.6009 -0.7656
vn -0.2811 0.1975 -0.9391
vn -0.2811 -0.1975 -0.9391
vn -0.2299 -0.6009 -0.7656
vn -0.0972 -0.9418 -0.3218
vn 0.0980 -0.9416 0.3221
vn 0.2342 -0.5993 0.7655
vn 0.2877 -0.1965 0.9373
vn -0.4277 0.2477 0.8693
vn -0.3196 0.6904 0.6490
vn -0.1196 0.9628 0.2425
vn 0.1198 0.9627 -0.2425
vn 0.3208 0.6902 -0.6486
vn 0.4298 0.2476 -0.8683
vn 0.4298 -0.2476 -0.8683
vn 0.3208 -0.6902 -0.6486
vn 0.1198 -0.9627 -0.2425
vn -0.1196 -0.9628 0.2425
vn -0.3196 -0.6904 0.6490
vn -0.4277 -0.2477 0.8693
vn -0.0379 0.2188 0.9750
vn -0.0295 0.6418 0.7663
vn -0.0116 0.9524 0.3046
vn 0.0114 0.9524 -0.3047
vn 0.0281 0.6421 -0.7661
vn 0.0355 0.2188 -0.9751
vn 0.0355 -0.2188 -0.9751
vn 0.0281 -0.6421 -0.7661
vn 0.0114 -0.9524 -0.3047
vn -0.0116 -0.9524 0.3046
vn -0.0295 -0.6418 0.7663
vn -0.0379 -0.2188 0.9750
vn 0.9762 0.2166 0.0050
vn 0.7701 0.6379 0.0044
vn 0.3076 0.9515 0.0021
vn -0.3074 0.9516 -0.0025
vn -0.7695 0.6386 -0.0070
vn -0.9761 0.2172 -0.0095
vn -0.9761 -0.2172 -0.0095
vn -0.7695 -0.6386 -0.0070
vn -0.3074 -0.9516 -0.0025
vn 0.3076 -0.9515 0.0021
vn 0.7701 -0.6379 0.0044
vn 0.9762 -0.2166 0.0050
vn 0.8337 0.1647 0.5271
vn 0.7177 0.5287 0.4532
vn 0.3344 0.9185 0.2108
vn -0.3348 0.9185 -0.2106
vn -0.7191 0.5282 -0.4516
vn -0.8356 0.1644 -0.5242
vn -0.8356 -0.1644 -0.5242
vn -0.7191 -0.5282 -0.4516
vn -0.3348 -0.9185 -0.2106
vn 0.3344 -0.9185 0.2108
vn 0.7177 -0.5287 0.4532
vn 0.8337 -0.1647 0.5271
vn -0.9856 0.1681 0.0155
vn -0.8437 0.5366 0.0124
vn -0.3887 0.9214 0.0050
vn 0.3893 0.9211 -0.0043
vn 0.8450 0.5348 -0.0078
vn 0.9859 0.1670 -0.0081
vn 0.9859 -0.1670 -0.0081
vn 0.8450 -0.5348 -0.0078
vn 0.3893 -0.9211 -0.0043
vn -0.3887 -0.9214 0.0050
vn -0.8437 -0.5366 0.0124
vn -0.9856 -0.1681 0.0155
vn -0.9208 0.2045 0.3320
vn -0.7418 0.6147 0.2680
vn -0.3058 0.9456 0.1109
vn 0.3059 0.9455 -0.1115
vn 0.7414 0.6138 -0.2713
vn 0.9192 0.2038 -0.3371
vn 0.9192 -0.2038 -0.3371
vn 0.7414 -0.6138 -0.2713
vn 0.3059 -0.9455 -0.1115
vn -0.3058 -0.9456 0.1109
vn -0.7418 -0.6147 0.2680
vn -0.9208 -0.2045 0.3320
vn 0.0055 0.1715 -0.9852
vn 0.0048 0.5446 -0.8387
vn 0.0023 0.9244 -0.3814
vn -0.0024 0.9244 0.3814
vn -0.0056 0.5447 0.8386
vn -0.0067 0.1714 0.9852
vn -0.0067 -0.1714 0.9852
vn -0.0056 -0.5447 0.8386
vn -0.0024 -0.9244 0.3814
vn 0.0023 -0.9244 -0.3814
vn 0.0048 -0.5446 -0.8387
vn 0.0055 -0.1715 -0.9852
vn 0.9728 0.2256 -0.0534
vn 0.7555 0.6538 -0.0410
vn 0.2959 0.9551 -0.0158
vn -0.2960 0.9551 0.0154
vn -0.7560 0.6534 0.0385
vn -0.9731 0.2252 0.0490
vn -0.9731 -0.2252 0.0490
vn -0.7560 -0.6534 0.0385
vn -0.2960 -0.9551 0.0154
vn 0.2959 -0.9551 -0.0158
vn 0.7555 -0.6538 -0.0410
vn 0.9728 -0.2256 -0.0534
vn 0.9659 0.2588 0.0082
vn 0.7072 0.7070 0.0060
vn 0.2589 0.9659 0.0022
vn -0.2589 0.9659 -0.0022
vn -0.7072 0.7070 -0.0060
vn -0.9659 0.2588 -0.0082
vn -0.9659 -0.2588 -0.0082
vn -0.7072 -0.7070 -0.0060
vn -0.2589 -0.9659 -0.0022
vn 0.2589 -0.9659 0.0022
vn 0.7072 -0.7070 0.0060
vn 0.9659 -0.2588 0.0082
vn 0.9749 0.2226 0.0034
vn 0.7610 0.6487 0.0024
vn 0.2998 0.9540 0.0007
vn -0.2997 0.9540 -0.0005
vn -0.7608 0.6490 -0.0008
vn -0.9749 0.2228 -0.0006
vn -0.9749 -0.2228 -0.0006
vn -0.7608 -0.6490 -0.0008
vn -0.2997 -0.9540 -0.0005
vn 0.2998 -0.9540 0.0007
vn 0.7610 -0.6487 0.0024
vn 0.9749 -0.2226 0.0034
vn -0.0025 0.1849 -0.9828
vn -0.0021 0.5745 -0.8185
vn -0.0009 0.9342 -0.3566
vn 0.0009 0.9342 0.3566
vn 0.0021 0.5745 0.8185
vn 0.0025 0.1848 0.9828
vn 0.0025 -0.1848 0.9828
vn 0.0021 -0.5745 0.8185
vn 0.0009 -0.9342 0.3566
vn -0.0009 -0.9342 -0.3566
vn -0.0021 -0.5745 -0.8185
vn -0.0025 -0.1849 -0.9828
vn -0.9747 0.2218 0.0278
vn -0.7621 0.6471 0.0215
vn -0.3008 0.9536 0.0083
vn 0.3008 0.9537 -0.0081
vn 0.7619 0.6474 -0.0201
vn 0.9747 0.2220 -0.0254
vn 0.9747 -0.2220 -0.0254
vn 0.7619 -0.6474 -0.0201
vn 0.3008 -0.9537 -0.0081
vn -0.3008 -0.9536 0.0083
vn -0.7621 -0.6471 0.0215
vn -0.9747 -0.2218 0.0278
vn -0.9657 0.2578 -0.0308
vn -0.7083 0.7056 -0.0226
vn -0.2597 0.9656 -0.0083
vn 0.2597 0.9656 0.0083
vn 0.7083 0.7056 0.0225
vn 0.9657 0.2578 0.0307
vn 0.9657 -0.2578 0.0307
vn 0.7083 -0.7056 0.0225
vn 0.2597 -0.9656 0.0083
vn -0.2597 -0.9656 -0.0083
vn -0.7083 -0.7056 -0.0226
vn -0.9657 -0.2578 -0.0308
vn -0.9246 0.2578 -0.2805
vn -0.6781 0.7056 -0.2057
vn -0.2487 0.9656 -0.0754
vn 0.2487 0.9656 0.0754
vn 0.6781 0.7056 0.2057
vn 0.9246 0.2578 0.2805
vn 0.9246 -0.2578 0.2805
vn 0.6781 -0.7056 0.2057
vn 0.2487 -0.9656 0.0754
vn -0.2487 -0.9656 -0.0754
vn -0.6781 -0.7056 -0.2057
vn -0.9246 -0.2578 -0.2805
vn -0.9274 0.2588 -0.2702
vn -0.6789 0.7071 -0.1978
vn -0.2485 0.9659 -0.0724
vn 0.2485 0.9659 0.0724
vn 0.6789 0.7071 0.1978
vn 0.9274 0.2588 0.2702
vn 0.9274 -0.2588 0.2702
vn 0.6789 -0.7071 0.1978
vn 0.2485 -0.9659 0.0724
vn -0.2485 -0.9659 -0.0724
vn -0.6789 -0.7071 -0.1978
vn -0.9274 -0.2588 -0.2702
vn 0.0337 0.2588 -0.9654
vn 0.0247 0.7071 -0.7067
vn 0.0090 0.9659 -0.2587
vn -0.0090 0.9659 0.2587
vn -0.0247 0.7071 0.7067
vn -0.0337 0.2588 0.9653
vn -0.0337 -0.2588 0.9653
vn -0.0247 -0.7071 0.7067
vn -0.0090 -0.9659 0.2587
vn 0.0090 -0.9659 -0.2587
vn 0.0247 -0.7071 -0.7067
vn 0.0337 -0.2588 -0.9654
vn -0.0359 0.2588 0.9653
vn -0.0263 0.7071 0.7066
vn -0.0096 0.9659 0.2586
vn 0.0096 0.9659 -0.2586
vn 0.0263 0.7071 -0.7066
vn 0.0359 0.2588 -0.9653
vn 0.0359 -0.2588 -0.9653
vn 0.0263 -0.7071 -0.7066
vn 0.0096 -0.9659 -0.2586
vn -0.0096 -0.9659 0.2586
vn -0.0263 -0.7071 0.7066
vn -0.0359 -0.2588 0.9653
vn -0.1750 0.2303 -0.9573
vn -0.1351 0.6621 -0.7372
vn -0.0525 0.9570 -0.2854
vn 0.0528 0.9570 0.2852
vn 0.1368 0.6624 0.7365
vn 0.1781 0.2305 0.9566
vn 0.1781 -0.2305 0.9566
vn 0.1368 -0.6624 0.7365
vn 0.0528 -0.9570 0.2852
vn -0.0525 -0.9570 -0.2854
vn -0.1351 -0.6621 -0.7372
vn -0.1750 -0.2303 -0.9573
vn -0.9731 0.2304 0.0035
vn -0.7493 0.6622 0.0025
vn -0.2901 0.9570 0.0009
vn 0.2901 0.9570 -0.0007
vn 0.7492 0.6623 -0.0017
vn 0.9731 0.2305 -0.0020
vn 0.9731 -0.2305 -0.0020
vn 0.7492 -0.6623 -0.0017
vn 0.2901 -0.9570 -0.0007
vn -0.2901 -0.9570 0.0009
vn -0.7493 -0.6622 0.0025
vn -0.9731 -0.2304 0.0035
vn 0.9728 0.2279 -0.0417
vn 0.7524 0.6579 -0.0324
vn 0.2930 0.9560 -0.0128
vn -0.2931 0.9560 0.0129
vn -0.7525 0.6577 0.0335
vn -0.9727 0.2278 0.0435
vn -0.9727 -0.2278 0.0435
vn -0.7525 -0.6577 0.0335
vn -0.2931 -0.9560 0.0129
vn 0.2930 -0.9560 -0.0128
vn 0.7524 -0.6579 -0.0324
vn 0.9728 -0.2279 -0.0417
vn 0.1549 0.2279 0.9613
vn 0.1197 0.6579 0.7436
vn 0.0465 0.9560 0.2896
vn -0.0464 0.9560 -0.2896
vn -0.1189 0.6577 -0.7438
vn -0.1536 0.2278 -0.9615
vn -0.1536 -0.2278 -0.9615
vn -0.1189 -0.6577 -0.7438
vn -0.0464 -0.9560 -0.2896
vn 0.0465 -0.9560 0.2896
vn 0.1197 -0.6579 0.7436
vn 0.1549 -0.2279 0.9613
vt 0.000000 1.000000
vt 0.038462 1.000000
vt 0.038462 0.916667
vt 0.000000 0.916667
vt 0.000000 0.083333
vt 0.038462 0.083333
vt 0.038462 0.000000
vt 0.000000 0.000000
vt 0.000000 0.166667
vt 0.038462 0.166667
vt 0.000000 0.250000
vt 0.038462 0.250000
vt 0.000000 0.333333
vt 0.038462 0.333333
vt 0.000000 0.416667
vt 0.038462 0.416667
vt 0.000000 0.500000
vt 0.038462 0.500000
vt 0.000000 0.583333
vt 0.038462 0.583333
vt 0.000000 0.666667
vt 0.038462 0.666667
vt 0.000000 0.750000
vt 0.038462 0.750000
vt 0.000000 0.833333
vt 0.038462 0.833333
vt 0.076923 1.000000
vt 0.076923 0.916667
vt 0.076923 0.083333
vt 0.076923 0.000000
vt 0.076923 0.166667
vt 0.076923 0.250000
vt 0.076923 0.333333
vt 0.076923 0.416667
vt 0.076923 0.500000
vt 0.076923 0.583333
vt 0.076923 0.666667
vt 0.076923 0.750000
vt 0.076923 0.833333
vt 0.115385 1.000000
vt 0.115385 0.916667
vt 0.115385 0.083333
vt 0.115385 0.000000
vt 0.115385 0.166667
vt 0.115385 0.250000
vt 0.115385 0.333333
vt 0.115385 0.416667
vt 0.115385 0.500000
vt 0.115385 0.583333
vt 0.115385 0.666667
vt 0.115385 0.750000
vt 0.115385 0.833333
vt 0.153846 1.000000
vt 0.153846 0.916667
vt 0.153846 0.083333
vt 0.153846 0.000000
vt 0.153846 0.166667
vt 0.153846 0.250000
vt 0.153846 0.333333
vt 0.153846 0.416667
vt 0.153846 0.500000
vt 0.153846 0.583333
vt 0.153846 0.666667
vt 0.153846 0.750000
vt 0.153846 0.833333
vt 0.192308 1.000000
vt 0.192308 0.916667
vt 0.192308 0.083333
vt 0.192308 0.000000
vt 0.192308 0.166667
vt 0.192308 0.250000
vt 0.192308 0.333333
vt 0.192308 0.416667
vt 0.192308 0.500000
vt 0.192308 0.583333
vt 0.192308 0.666667
vt 0.192308 0.750000
vt 0.192308 0.833333
vt 0.230769 1.000000
vt 0.230769 0.916667
vt 0.230769 0.083333
vt 0.230769 0.000000
vt 0.230769 0.166667
vt 0.230769 0.250000
vt 0.230769 0.333333
vt 0.230769 0.416667
vt 0.230769 0.500000
vt 0.230769 0.583333
vt 0.230769 0.666667
vt 0.230769 0.750000
vt 0.230769 0.833333
vt 0.269231 1.000000
vt 0.269231 0.916667
vt 0.269231 0.083333
vt 0.269231 0.000000
vt 0.269231 0.166667
vt 0.269231 0.250000
vt 0.269231 0.333333
vt 0.269231 0.416667
vt 0.269231 0.500000
vt 0.269231 0.583333
vt 0.269231 0.666667
vt 0.269231 0.750000
vt 0.269231 0.833333
vt 0.307692 1.000000
vt 0.307692 0.916667
vt 0.307692 0.083333
vt 0.307692 0.000000
vt 0.307692 0.166667
vt 0.307692 0.250000
vt 0.307692 0.333333
vt 0.307692 0.416667
vt 0.307692 0.500000
vt 0.307692 0.583333
vt 0.307692 0.666667
vt 0.307692 0.750000
vt 0.307692 0.833333
vt 0.346154 1.000000
vt 0.346154 0.916667
vt 0.346154 0.083333
vt 0.346154 0.000000
vt 0.346154 0.166667
vt 0.346154 0.250000
vt 0.346154 0.333333
vt 0.346154 0.416667
vt 0.346154 0.500000
vt 0.346154 0.583333
vt 0.346154 0.666667
vt 0.346154 0.750000
vt 0.346154 0.833333
vt 0.384615 1.000000
vt 0.384615 0.916667
vt 0.384615 0.083333
vt 0.384615 0.000000
vt 0.384615 0.166667
vt 0.384615 0.250000
vt 0.384615 0.333333
vt 0.384615 0.416667
vt 0.384615 0.500000
vt 0.384615 0.583333
vt 0.384615 0.666667
vt 0.384615 0.750000
vt 0.384615 0.833333
vt 0.423077 1.000000
vt 0.423077 0.916667
vt 0.423077 0.083333
vt 0.423077 0.000000
vt 0.423077 0.166667
vt 0.423077 0.250000
vt 0.423077 0.333333
vt 0.423077 0.416667
vt 0.423077 0.500000
vt 0.423077 0.583333
vt 0.423077 0.666667
vt 0.423077 0.750000
vt 0.423077 0.833333
vt 0.461538 1.000000
vt 0.461538 0.916667
vt 0.461538 0.083333
vt 0.461538 0.000000
vt 0.461538 0.166667
vt 0.461538 0.250000
vt 0.461538 0.333333
vt 0.461538 0.416667
vt 0.461538 0.500000
vt 0.461538 0.583333
vt 0.461538 0.666667
vt 0.461538 0.750000
vt 0.461538 0.833333
vt 0.500000 1.000000
vt 0.500000 0.916667
vt 0.500000 0.083333
vt 0.500000 0.000000
vt 0.500000 0.166667
vt 0.500000 0.250000
vt 0.500000 0.333333
vt 0.500000 0.416667
vt 0.500000 0.500000
vt 0.500000 0.583333
vt 0.500000 0.666667
vt 0.500000 0.750000
vt 0.500000 0.833333
vt 0.538462 1.000000
vt 0.538462 0.916667
vt 0.538462 0.083333
vt 0.538462 0.000000
vt 0.538462 0.166667
vt 0.538462 0.250000
vt 0.538462 0.333333
vt 0.538462 0.416667
vt 0.538462 0.500000
vt 0.538462 0.583333
vt 0.538462 0.666667
vt 0.538462 0.750000
vt 0.538462 0.833333
vt 0.576923 1.000000
vt 0.576923 0.916667
vt 0.576923 0.083333
vt 0.576923 0.000000
vt 0.576923 0.166667
vt 0.576923 0.250000
vt 0.576923 0.333333
vt 0.576923 0.416667
vt 0.576923 0.500000
vt 0.576923 0.583333
vt 0.576923 0.666667
vt 0.576923 0.750000
vt 0.576923 0.833333
vt 0.615385 1.000000
vt 0.615385 0.916667
vt 0.615385 0.083333
vt 0.615385 0.000000
vt 0.615385 0.166667
vt 0.615385 0.250000
vt 0.615385 0.333333
vt 0.615385 0.416667
vt 0.615385 0.500000
vt 0.615385 0.583333
vt 0.615385 0.666667
vt 0.615385 0.750000
vt 0.615385 0.833333
vt 0.653846 1.000000
vt 0.653846 0.916667
vt 0.653846 0.083333
vt 0.653846 0.000000
vt 0.653846 0.166667
vt 0.653846 0.250000
vt 0.653846 0.333333
vt 0.653846 0.416667
vt 0.653846 0.500000
vt 0.653846 0.583333
vt 0.653846 0.666667
vt 0.653846 0.750000
vt 0.653846 0.833333
vt 0.692308 1.000000
vt 0.692308 0.916667
vt 0.692308 0.083333
vt 0.692308 0.000000
vt 0.692308 0.166667
vt 0.692308 0.250000
vt 0.692308 0.333333
vt 0.692308 0.416667
vt 0.692308 0.500000
vt 0.692308 0.583333
vt 0.692308 0.666667
vt 0.692308 0.750000
vt 0.692308 0.833333
vt 0.730769 1.000000
vt 0.730769 0.916667
vt 0.730769 0.083333
vt 0.730769 0.000000
vt 0.730769 0.166667
vt 0.730769 0.250000
vt 0.730769 0.333333
vt 0.730769 0.416667
vt 0.730769 0.500000
vt 0.730769 0.583333
vt 0.730769 0.666667
vt 0.730769 0.750000
vt 0.730769 0.833333
vt 0.769231 1.000000
vt 0.769231 0.916667
vt 0.769231 0.083333
vt 0.769231 0.000000
vt 0.769231 0.166667
vt 0.769231 0.250000
vt 0.769231 0.333333
vt 0.769231 0.416667
vt 0.769231 0.500000
vt 0.769231 0.583333
vt 0.769231 0.666667
vt 0.769231 0.750000
vt 0.769231 0.833333
vt 0.807692 1.000000
vt 0.807692 0.916667
vt 0.807692 0.083333
vt 0.807692 0.000000
vt 0.807692 0.166667
vt 0.807692 0.250000
vt 0.807692 0.333333
vt 0.807692 0.416667
vt 0.807692 0.500000
vt 0.807692 0.583333
vt 0.807692 0.666667
vt 0.807692 0.750000
vt 0.807692 0.833333
vt 0.846154 1.000000
vt 0.846154 0.916667
vt 0.846154 0.083333
vt 0.846154 0.000000
vt 0.846154 0.166667
vt 0.846154 0.250000
vt 0.846154 0.333333
vt 0.846154 0.416667
vt 0.846154 0.500000
vt 0.846154 0.583333
vt 0.846154 0.666667
vt 0.846154 0.750000
vt 0.846154 0.833333
vt 0.884615 1.000000
vt 0.884615 0.916667
vt 0.884615 0.083333
vt 0.884615 0.000000
vt 0.884615 0.166667
vt 0.884615 0.250000
vt 0.884615 0.333333
vt 0.884615 0.416667
vt 0.884615 0.500000
vt 0.884615 0.583333
vt 0.884615 0.666667
vt 0.884615 0.750000
vt 0.884615 0.833333
vt 0.923077 1.000000
vt 0.923077 0.916667
vt 0.923077 0.083333
vt 0.923077 0.000000
vt 0.923077 0.166667
vt 0.923077 0.250000
vt 0.923077 0.333333
vt 0.923077 0.416667
vt 0.923077 0.500000
vt 0.923077 0.583333
vt 0.923077 0.666667
vt 0.923077 0.750000
vt 0.923077 0.833333
vt 0.961538 1.000000
vt 0.961538 0.916667
vt 0.961538 0.083333
vt 0.961538 0.000000
vt 0.961538 0.166667
vt 0.961538 0.250000
vt 0.961538 0.333333
vt 0.961538 0.416667
vt 0.961538 0.500000
vt 0.961538 0.583333
vt 0.961538 0.666667
vt 0.961538 0.750000
vt 0.961538 0.833333
vt 1.000000 1.000000
vt 1.000000 0.916667
vt 1.000000 0.083333
vt 1.000000 0.000000
vt 1.000000 0.166667
vt 1.000000 0.250000
vt 1.000000 0.333333
vt 1.000000 0.416667
vt 1.000000 0.500000
vt 1.000000 0.583333
vt 1.000000 0.666667
vt 1.000000 0.750000
vt 1.000000 0.833333
vt 0.333333 1.000000
vt 0.333333 0.916667
vt 0.333333 0.083333
vt 0.333333 0.000000
vt 0.333333 0.166667
vt 0.333333 0.250000
vt 0.333333 0.333333
vt 0.333333 0.416667
vt 0.333333 0.500000
vt 0.333333 0.583333
vt 0.333333 0.666667
vt 0.333333 0.750000
vt 0.333333 0.833333
vt 0.666667 1.000000
vt 0.666667 0.916667
vt 0.666667 0.083333
vt 0.666667 0.000000
vt 0.666667 0.166667
vt 0.666667 0.250000
vt 0.666667 0.333333
vt 0.666667 0.416667
vt 0.666667 0.500000
vt 0.666667 0.583333
vt 0.666667 0.666667
vt 0.666667 0.750000
vt 0.666667 0.833333
s 0
usemtl Material
f 1/1/1 13/2/1 24/3/1 12/4/1
f 2/5/2 14/6/2 13/7/2 1/8/2
f 3/9/3 15/10/3 14/6/3 2/5/3
f 4/11/4 16/12/4 15/10/4 3/9/4
f 5/13/5 17/14/5 16/12/5 4/11/5
f 6/15/6 18/16/6 17/14/6 5/13/6
f 7/17/7 19/18/7 18/16/7 6/15/7
f 8/19/8 20/20/8 19/18/8 7/17/8
f 9/21/9 21/22/9 20/20/9 8/19/9
f 10/23/10 22/24/10 21/22/10 9/21/10
f 11/25/11 23/26/11 22/24/11 10/23/11
f 12/4/12 24/3/12 23/26/12 11/25/12
f 13/2/13 25/27/13 36/28/13 24/3/13
f 14/6/14 26/29/14 25/30/14 13/7/14
f 15/10/15 27/31/15 26/29/15 14/6/15
f 16/12/16 28/32/16 27/31/16 15/10/16
f 17/14/17 29/33/17 28/32/17 16/12/17
f 18/16/18 30/34/18 29/33/18 17/14/18
f 19/18/19 31/35/19 30/34/19 18/16/19
f 20/20/20 32/36/20 31/35/20 19/18/20
f 21/22/21 33/37/21 32/36/21 20/20/21
f 22/24/22 34/38/22 33/37/22 21/22/22
f 23/26/23 35/39/23 34/38/23 22/24/23
f 24/3/24 36/28/24 35/39/24 23/26/24
f 25/27/25 37/40/25 48/41/25 36/28/25
f 26/29/26 38/42/26 37/43/26 25/30/26
f 27/31/27 39/44/27 38/42/27 26/29/27
f 28/32/28 40/45/28 39/44/28 27/31/28
f 29/33/29 41/46/29 40/45/29 28/32/29
f 30/34/30 42/47/30 41/46/30 29/33/30
f 31/35/31 43/48/31 42/47/31 30/34/31
f 32/36/32 44/49/32 43/48/32 31/35/32
f 33/37/33 45/50/33 44/49/33 32/36/33
f 34/38/34 46/51/34 45/50/34 33/37/34
f 35/39/35 47/52/35 46/51/35 34/38/35
f 36/28/36 48/41/36 47/52/36 35/39/36
f 37/40/37 49/53/37 60/54/37 48/41/37
f 38/42/38 50/55/38 49/56/38 37/43/38
f 39/44/39 51/57/39 50/55/39 38/42/39
f 40/45/40 52/58/40 51/57/40 39/44/40
f 41/46/41 53/59/41 52/58/41 40/45/41
f 42/47/42 54/60/42 53/59/42 41/46/42
f 43/48/43 55/61/43 54/60/43 42/47/43
f 44/49/44 56/62/44 55/61/44 43/48/44
f 45/50/45 57/63/45 56/62/45 44/49/45
f 46/51/46 58/64/46 57/63/46 45/50/46
f 47/52/47 59/65/47 58/64/47 46/51/47
f 48/41/48 60/54/48 59/65/48 47/52/48
f 49/53/49 61/66/49 72/67/49 60/54/49
f 50/55/50 62/68/50 61/69/50 49/56/50
f 51/57/51 63/70/51 62/68/51 50/55/51
f 52/58/52 64/71/52 63/70/52 51/57/52
f 53/59/53 65/72/53 64/71/53 52/58/53
f 54/60/54 66/73/54 65/72/54 53/59/54
f 55/61/55 67/74/55 66/73/55 54/60/55
f 56/62/56 68/75/56 67/74/56 55/61/56
f 57/63/57 69/76/57 68/75/57 56/62/57
f 58/64/58 70/77/58 69/76/58 57/63/58
f 59/65/59 71/78/59 70/77/59 58/64/59
f 60/54/60 72/67/60 71/78/60 59/65/60
f 61/66/61 73/79/61 84/80/61 72/67/61
f 62/68/62 74/81/62 73/82/62 61/69/62
f 63/70/63 75/83/63 74/81/63 62/68/63
f 64/71/64 76/84/64 75/83/64 63/70/64
f 65/72/65 77/85/65 76/84/65 64/71/65
f 66/73/66 78/86/66 77/85/66 65/72/66
f 67/74/67 79/87/67 78/86/67 66/73/67
f 68/75/68 80/88/68 79/87/68 67/74/68
f 69/76/69 81/89/69 80/88/69 68/75/69
f 70/77/70 82/90/70 81/89/70 69/76/70
f 71/78/71 83/91/71 82/90/71 70/77/71
f 72/67/72 84/80/72 83/91/72 71/78/72
f 73/79/73 85/92/73 96/93/73 84/80/73
f 74/81/74 86/94/74 85/95/74 73/82/74
f 75/83/75 87/96/75 86/94/75 74/81/75
f 76/84/76 88/97/76 87/96/76 75/83/76
f 77/85/77 89/98/77 88/97/77 76/84/77
f 78/86/78 90/99/78 89/98/78 77/85/78
f 79/87/79 91/100/79 90/99/79 78/86/79
f 80/88/80 92/101/80 91/100/80 79/87/80
f 81/89/81 93/102/81 92/101/81 80/88/81
f 82/90/82 94/103/82 93/102/82 81/89/82
f 83/91/83 95/104/83 94/103/83 82/90/83
f 84/80/84 96/93/84 95/104/84 83/91/84
f 85/92/85 97/105/85 108/106/85 96/93/85
f 86/94/86 98/107/86 97/108/86 85/95/86
f 87/96/87 99/109/87 98/107/87 86/94/87
f 88/97/88 100/110/88 99/109/88 87/96/88
f 89/98/89 101/111/89 100/110/89 88/97/89
f 90/99/90 102/112/90 101/111/90 89/98/90
f 91/100/91 103/113/91 102/112/91 90/99/91
f 92/101/92 104/114/92 103/113/92 91/100/92
f 93/102/93 105/115/93 104/114/93 92/101/93
f 94/103/94 106/116/94 105/115/94 93/102/94
f 95/104/95 107/117/95 106/116/95 94/103/95
f 96/93/96 108/106/96 107/117/96 95/104/96
f 97/105/97 109/118/97 120/119/97 108/106/97
f 98/107/98 110/120/98 109/121/98 97/108/98
f 99/109/99 111/122/99 110/120/99 98/107/99
f 100/110/100 112/123/100 111/122/100 99/109/100
f 101/111/101 113/124/101 112/123/101 100/110/101
f 102/112/102 114/125/102 113/124/102 101/111/102
f 103/113/103 115/126/103 114/125/103 102/112/103
f 104/114/104 116/127/104 115/126/104 103/113/104
f 105/115/105 117/128/105 116/127/105 104/114/105
f 106/116/106 118/129/106 117/128/106 105/115/106
f 107/117/107 119/130/107 118/129/107 106/116/107
f 108/106/108 120/119/108 119/130/108 107/117/108
f 109/118/109 121/131/109 132/132/109 120/119/109
f 110/120/110 122/133/110 121/134/110 109/121/110
f 111/122/111 123/135/111 122/133/111 110/120/111
f 112/123/112 124/136/112 123/135/112 111/122/112
f 113/124/113 125/137/113 124/136/113 112/123/113
f 114/125/114 126/138/114 125/137/114 113/124/114
f 115/126/115 127/139/115 126/138/115 114/125/115
f 116/127/116 128/140/116 127/139/116 115/126/116
f 117/128/117 129/141/117 128/140/117 116/127/117
f 118/129/118 130/142/118 129/141/118 117/128/118
f 119/130/119 131/143/119 130/142/119 118/129/119
f 120/119/120 132/132/120 131/143/120 119/130/120
f 121/131/121 133/144/121 144/145/121 132/132/121
f 122/133/122 134/146/122 133/147/122 121/134/122
f 123/135/123 135/148/123 134/146/123 122/133/123
f 124/136/124 136/149/124 135/148/124 123/135/124
f 125/137/125 137/150/125 136/149/125 124/136/125
f 126/138/126 138/151/126 137/150/126 125/137/126
f 127/139/127 139/152/127 138/151/127 126/138/127
f 128/140/128 140/153/128 139/152/128 127/139/128
f 129/141/129 141/154/129 140/153/129 128/140/129
f 130/142/130 142/155/130 141/154/130 129/141/130
f 131/143/131 143/156/131 142/155/131 130/142/131
f 132/132/132 144/145/132 143/156/132 131/143/132
f 133/144/133 145/157/133 156/158/133 144/145/133
f 134/146/134 146/159/134 145/160/134 133/147/134
f 135/148/135 147/161/135 146/159/135 134/146/135
f 136/149/136 148/162/136 147/161/136 135/148/136
f 137/150/137 149/163/137 148/162/137 136/149/137
f 138/151/138 150/164/138 149/163/138 137/150/138
f 139/152/139 151/165/139 150/164/139 138/151/139
f 140/153/140 152/166/140 151/165/140 139/152/140
f 141/154/141 153/167/141 152/166/141 140/153/141
f 142/155/142 154/168/142 153/167/142 141/154/142
f 143/156/143 155/169/143 154/168/143 142/155/143
f 144/145/144 156/158/144 155/169/144 143/156/144
f 145/157/145 157/170/145 168/171/145 156/158/145
f 146/159/146 158/172/146 157/173/146 145/160/146
f 147/161/147 159/174/147 158/172/147 146/159/147
f 148/162/148 160/175/148 159/174/148 147/161/148
f 149/163/149 161/176/149 160/175/149 148/162/149
f 150/164/150 162/177/150 161/176/150 149/163/150
f 151/165/151 163/178/151 162/177/151 150/164/151
f 152/166/152 164/179/152 163/178/152 151/165/152
f 153/167/153 165/180/153 164/179/153 152/166/153
f 154/168/154 166/181/154 165/180/154 153/167/154
f 155/169/155 167/182/155 166/181/155 154/168/155
f 156/158/156 168/171/156 167/182/156 155/169/156
f 157/170/157 169/183/157 180/184/157 168/171/157
f 158/172/158 170/185/158 169/186/158 157/173/158
f 159/174/159 171/187/159 170/185/159 158/172/159
f 160/175/160 172/188/160 171/187/160 159/174/160
f 161/176/161 173/189/161 172/188/161 160/175/161
f 162/177/162 174/190/162 173/189/162 161/176/162
f 163/178/163 175/191/163 174/190/163 162/177/163
f 164/179/164 176/192/164 175/191/164 163/178/164
f 165/180/165 177/193/165 176/192/165 164/179/165
f 166/181/166 178/194/166 177/193/166 165/180/166
f 167/182/167 179/195/167 178/194/167 166/181/167
f 168/171/168 180/184/168 179/195/168 167/182/168
f 169/183/169 181/196/169 192/197/169 180/184/169
f 170/185/170 182/198/170 181/199/170 169/186/170
f 171/187/171 183/200/171 182/198/171 170/185/171
f 172/188/172 184/201/172 183/200/172 171/187/172
f 173/189/173 185/202/173 184/201/173 172/188/173
f 174/190/174 186/203/174 185/202/174 173/189/174
f 175/191/175 187/204/175 186/203/175 174/190/175
f 176/192/176 188/205/176 187/204/176 175/191/176
f 177/193/177 189/206/177 188/205/177 176/192/177
f 178/194/178 190/207/178 189/206/178 177/193/178
f 179/195/179 191/208/179 190/207/179 178/194/179
f 180/184/180 192/197/180 191/208/180 179/195/180
f 181/196/181 193/209/181 204/210/181 192/197/181
f 182/198/182 194/211/182 193/212/182 181/199/182
f 183/200/183 195/213/183 194/211/183 182/198/183
f 184/201/184 196/214/184 195/213/184 183/200/184
f 185/202/185 197/215/185 196/214/185 184/201/185
f 186/203/186 198/216/186 197/215/186 185/202/186
f 187/204/187 199/217/187 198/216/187 186/203/187
f 188/205/188 200/218/188 199/217/188 187/204/188
f 189/206/189 201/219/189 200/218/189 188/205/189
f 190/207/190 202/220/190 201/219/190 189/206/190
f 191/208/191 203/221/191 202/220/191 190/207/191
f 192/197/192 204/210/192 203/221/192 191/208/192
f 193/209/193 205/222/193 216/223/193 204/210/193
f 194/211/194 206/224/194 205/225/194 193/212/194
f 195/213/195 207/226/195 206/224/195 194/211/195
f 196/214/196 208/227/196 207/226/196 195/213/196
f 197/215/197 209/228/197 208/227/197 196/214/197
f 198/216/198 210/229/198 209/228/198 197/215/198
f 199/217/199 211/230/199 210/229/199 198/216/199
f 200/218/200 212/231/200 211/230/200 199/217/200
f 201/219/201 213/232/201 212/231/201 200/218/201
f 202/220/202 214/233/202 213/232/202 201/219/202
f 203/221/203 215/234/203 214/233/203 202/220/203
f 204/210/204 216/223/204 215/234/204 203/221/204
f 205/222/205 217/235/205 228/236/205 216/223/205
f 206/224/206 218/237/206 217/238/206 205/225/206
f 207/226/207 219/239/207 218/237/207 206/224/207
f 208/227/208 220/240/208 219/239/208 207/226/208
f 209/228/209 221/241/209 220/240/209 208/227/209
f 210/229/210 222/242/210 221/241/210 209/228/210
f 211/230/211 223/243/211 222/242/211 210/229/211
f 212/231/212 224/244/212 223/243/212 211/230/212
f 213/232/213 225/245/213 224/244/213 212/231/213
f 214/233/214 226/246/214 225/245/214 213/232/214
f 215/234/215 227/247/215 226/246/215 214/233/215
f 216/223/216 228/236/216 227/247/216 215/234/216
f 217/235/217 229/248/217 240/249/217 228/236/217
f 218/237/218 230/250/218 229/251/218 217/238/218
f 219/239/219 231/252/219 230/250/219 218/237/219
f 220/240/220 232/253/220 231/252/220 219/239/220
f 221/241/221 233/254/221 232/253/221 220/240/221
f 222/242/222 234/255/222 233/254/222 221/241/222
f 223/243/223 235/256/223 234/255/223 222/242/223
f 224/244/224 236/257/224 235/256/224 223/243/224
f 225/245/225 237/258/225 236/257/225 224/244/225
f 226/246/226 238/259/226 237/258/226 225/245/226
f 227/247/227 239/260/227 238/259/227 226/246/227
f 228/236/228 240/249/228 239/260/228 227/247/228
f 229/248/229 241/261/229 252/262/229 240/249/229
f 230/250/230 242/263/230 241/264/230 229/251/230
f 231/252/231 243/265/231 242/263/231 230/250/231
f 232/253/232 244/266/232 243/265/232 231/252/232
f 233/254/233 245/267/233 244/266/233 232/253/233
f 234/255/234 246/268/234 245/267/234 233/254/234
f 235/256/235 247/269/235 246/268/235 234/255/235
f 236/257/236 248/270/236 247/269/236 235/256/236
f 237/258/237 249/271/237 248/270/237 236/257/237
f 238/259/238 250/272/238 249/271/238 237/258/238
f 239/260/239 251/273/239 250/272/239 238/259/239
f 240/249/240 252/262/240 251/273/240 239/260/240
f 241/261/241 253/274/241 264/275/241 252/262/241
f 242/263/242 254/276/242 253/277/242 241/264/242
f 243/265/243 255/278/243 254/276/243 242/263/243
f 244/266/244 256/279/244 255/278/244 243/265/244
f 245/267/245 257/280/245 256/279/245 244/266/245
f 246/268/246 258/281/246 257/280/246 245/267/246
f 247/269/247 259/282/247 258/281/247 246/268/247
f 248/270/248 260/283/248 259/282/248 247/269/248
f 249/271/249 261/284/249 260/283/249 248/270/249
f 250/272/250 262/285/250 261/284/250 249/271/250
f 251/273/251 263/286/251 262/285/251 250/272/251
f 252/262/252 264/275/252 263/286/252 251/273/252
f 253/274/253 265/287/253 276/288/253 264/275/253
f 254/276/254 266/289/254 265/290/254 253/277/254
f 255/278/255 267/291/255 266/289/255 254/276/255
f 256/279/256 268/292/256 267/291/256 255/278/256
f 257/280/257 269/293/257 268/292/257 256/279/257
f 258/281/258 270/294/258 269/293/258 257/280/258
f 259/282/259 271/295/259 270/294/259 258/281/259
f 260/283/260 272/296/260 271/295/260 259/282/260
f 261/284/261 273/297/261 272/296/261 260/283/261
f 262/285/262 274/298/262 273/297/262 261/284/262
f 263/286/263 275/299/263 274/298/263 262/285/263
f 264/275/264 276/288/264 275/299/264 263/286/264
f 265/287/265 277/300/265 288/301/265 276/288/265
f 266/289/266 278/302/266 277/303/266 265/290/266
f 267/291/267 279/304/267 278/302/267 266/289/267
f 268/292/268 280/305/268 279/304/268 267/291/268
f 269/293/269 281/306/269 280/305/269 268/292/269
f 270/294/270 282/307/270 281/306/270 269/293/270
f 271/295/271 283/308/271 282/307/271 270/294/271
f 272/296/272 284/309/272 283/308/272 271/295/272
f 273/297/273 285/310/273 284/309/273 272/296/273
f 274/298/274 286/311/274 285/310/274 273/297/274
f 275/299/275 287/312/275 286/311/275 274/298/275
f 276/288/276 288/301/276 287/312/276 275/299/276
f 277/300/277 289/313/277 300/314/277 288/301/277
f 278/302/278 290/315/278 289/316/278 277/303/278
f 279/304/279 291/317/279 290/315/279 278/302/279
f 280/305/280 292/318/280 291/317/280 279/304/280
f 281/306/281 293/319/281 292/318/281 280/305/281
f 282/307/282 294/320/282 293/319/282 281/306/282
f 283/308/283 295/321/283 294/320/283 282/307/283
f 284/309/284 296/322/284 295/321/284 283/308/284
f 285/310/285 297/323/285 296/322/285 284/309/285
f 286/311/286 298/324/286 297/323/286 285/310/286
f 287/312/287 299/325/287 298/324/287 286/311/287
f 288/301/288 300/314/288 299/325/288 287/312/288
f 289/313/289 301/326/289 312/327/289 300/314/289
f 290/315/290 302/328/290 301/329/290 289/316/290
f 291/317/291 303/330/291 302/328/291 290/315/291
f 292/318/292 304/331/292 303/330/292 291/317/292
f 293/319/293 305/332/293 304/331/293 292/318/293
f 294/320/294 306/333/294 305/332/294 293/319/294
f 295/321/295 307/334/295 306/333/295 294/320/295
f 296/322/296 308/335/296 307/334/296 295/321/296
f 297/323/297 309/336/297 308/335/297 296/322/297
f 298/324/298 310/337/298 309/336/298 297/323/298
f 299/325/299 311/338/299 310/337/299 298/324/299
f 300/314/300 312/327/300 311/338/300 299/325/300
f 301/326/301 313/339/301 324/340/301 312/327/301
f 302/328/302 314/341/302 313/342/302 301/329/302
f 303/330/303 315/343/303 314/341/303 302/328/303
f 304/331/304 316/344/304 315/343/304 303/330/304
f 305/332/305 317/345/305 316/344/305 304/331/305
f 306/333/306 318/346/306 317/345/306 305/332/306
f 307/334/307 319/347/307 318/346/307 306/333/307
f 308/335/308 320/348/308 319/347/308 307/334/308
f 309/336/309 321/349/309 320/348/309 308/335/309
f 310/337/310 322/350/310 321/349/310 309/336/310
f 311/338/311 323/351/311 322/350/311 310/337/311
f 312/327/312 324/340/312 323/351/312 311/338/312
f 325/1/313 337/352/313 348/353/313 336/4/313
f 326/5/314 338/354/314 337/355/314 325/8/314
f 327/9/315 339/356/315 338/354/315 326/5/315
f 328/11/316 340/357/316 339/356/316 327/9/316
f 329/13/317 341/358/317 340/357/317 328/11/317
f 330/15/318 342/359/318 341/358/318 329/13/318
f 331/17/319 343/360/319 342/359/319 330/15/319
f 332/19/320 344/361/320 343/360/320 331/17/320
f 333/21/321 345/362/321 344/361/321 332/19/321
f 334/23/322 346/363/322 345/362/322 333/21/322
f 335/25/323 347/364/323 346/363/323 334/23/323
f 336/4/324 348/353/324 347/364/324 335/25/324
f 337/352/325 349/365/325 360/366/325 348/353/325
f 338/354/326 350/367/326 349/368/326 337/355/326
f 339/356/327 351/369/327 350/367/327 338/354/327
f 340/357/328 352/370/328 351/369/328 339/356/328
f 341/358/329 353/371/329 352/370/329 340/357/329
f 342/359/330 354/372/330 353/371/330 341/358/330
f 343/360/331 355/373/331 354/372/331 342/359/331
f 344/361/332 356/374/332 355/373/332 343/360/332
f 345/362/333 357/375/333 356/374/333 344/361/333
f 346/363/334 358/376/334 357/375/334 345/362/334
f 347/364/335 359/377/335 358/376/335 346/363/335
f 348/353/336 360/366/336 359/377/336 347/364/336
f 349/365/337 361/339/337 372/340/337 360/366/337
f 350/367/338 362/341/338 361/342/338 349/368/338
f 351/369/339 363/343/339 362/341/339 350/367/339
f 352/370/340 364/344/340 363/343/340 351/369/340
f 353/371/341 365/345/341 364/344/341 352/370/341
f 354/372/342 366/346/342 365/345/342 353/371/342
f 355/373/343 367/347/343 366/346/343 354/372/343
f 356/374/344 368/348/344 367/347/344 355/373/344
f 357/375/345 369/349/345 368/348/345 356/374/345
f 358/376/346 370/350/346 369/349/346 357/375/346
f 359/377/347 371/351/347 370/350/347 358/376/347
f 360/366/348 372/340/348 371/351/348 359/377/348
f 373/1/349 385/352/349 396/353/349 384/4/349
f 374/5/350 386/354/350 385/355/350 373/8/350
f 375/9/351 387/356/351 386/354/351 374/5/351
f 376/11/352 388/357/352 387/356/352 375/9/352
f 377/13/353 389/358/353 388/357/353 376/11/353
f 378/15/354 390/359/354 389/358/354 377/13/354
f 379/17/355 391/360/355 390/359/355 378/15/355
f 380/19/356 392/361/356 391/360/356 379/17/356
f 381/21/357 393/362/357 392/361/357 380/19/357
f 382/23/358 394/363/358 393/362/358 381/21/358
f 383/25/359 395/364/359 394/363/359 382/23/359
f 384/4/360 396/353/360 395/364/360 383/25/360
f 385/352/361 397/365/361 408/366/361 396/353/361
f 386/354/362 398/367/362 397/368/362 385/355/362
f 387/356/363 399/369/363 398/367/363 386/354/363
f 388/357/364 400/370/364 399/369/364 387/356/364
f 389/358/365 401/371/365 400/370/365 388/357/365
f 390/359/366 402/372/366 401/371/366 389/358/366
f 391/360/367 403/373/367 402/372/367 390/359/367
f 392/361/368 404/374/368 403/373/368 391/360/368
f 393/362/369 405/375/369 404/374/369 392/361/369
f 394/363/370 406/376/370 405/375/370 393/362/370
f 395/364/371 407/377/371 406/376/371 394/363/371
f 396/353/372 408/366/372 407/377/372 395/364/372
f 397/365/373 409/339/373 420/340/373 408/366/373
f 398/367/374 410/341/374 409/342/374 397/368/374
f 399/369/375 411/343/375 410/341/375 398/367/375
f 400/370/376 412/344/376 411/343/376 399/369/376
f 401/371/377 413/345/377 412/344/377 400/370/377
f 402/372/378 414/346/378 413/345/378 401/371/378
f 403/373/379 415/347/379 414/346/379 402/372/379
f 404/374/380 416/348/380 415/347/380 403/373/380
f 405/375/381 417/349/381 416/348/381 404/374/381
f 406/376/382 418/350/382 417/349/382 405/375/382
f 407/377/383 419/351/383 418/350/383 406/376/383
f 408/366/384 420/340/384 419/351/384 407/377/384
f 421/1/385 433/339/385 444/340/385 432/4/385
f 422/5/386 434/341/386 433/342/386 421/8/386
f 423/9/387 435/343/387 434/341/387 422/5/387
f 424/11/388 436/344/388 435/343/388 423/9/388
f 425/13/389 437/345/389 436/344/389 424/11/389
f 426/15/390 438/346/390 437/345/390 425/13/390
f 427/17/391 439/347/391 438/346/391 426/15/391
f 428/19/392 440/348/392 439/347/392 427/17/392
f 429/21/393 441/349/393 440/348/393 428/19/393
f 430/23/394 442/350/394 441/349/394 429/21/394
f 431/25/395 443/351/395 442/350/395 430/23/395
f 432/4/396 444/340/396 443/351/396 431/25/396
f 445/1/397 457/339/397 468/340/397 456/4/397
f 446/5/398 458/341/398 457/342/398 445/8/398
f 447/9/399 459/343/399 458/341/399 446/5/399
f 448/11/400 460/344/400 459/343/400 447/9/400
f 449/13/401 461/345/401 460/344/401 448/11/401
f 450/15/402 462/346/402 461/345/402 449/13/402
f 451/17/403 463/347/403 462/346/403 450/15/403
f 452/19/404 464/348/404 463/347/404 451/17/404
f 453/21/405 465/349/405 464/348/405 452/19/405
f 454/23/406 466/350/406 465/349/406 453/21/406
f 455/25/407 467/351/407 466/350/407 454/23/407
f 456/4/408 468/340/408 467/351/408 455/25/408
f 469/1/409 481/170/409 492/171/409 480/4/409
f 470/5/410 482/172/410 481/173/410 469/8/410
f 471/9/411 483/174/411 482/172/411 470/5/411
f 472/11/412 484/175/412 483/174/412 471/9/412
f 473/13/413 485/176/413 484/175/413 472/11/413
f 474/15/414 486/177/414 485/176/414 473/13/414
f 475/17/415 487/178/415 486/177/415 474/15/415
f 476/19/416 488/179/416 487/178/416 475/17/416
f 477/21/417 489/180/417 488/179/417 476/19/417
f 478/23/418 490/181/418 489/180/418 477/21/418
f 479/25/419 491/182/419 490/181/419 478/23/419
f 480/4/420 492/171/420 491/182/420 479/25/420
f 481/170/421 493/339/421 504/340/421 492/171/421
f 482/172/422 494/341/422 493/342/422 481/173/422
f 483/174/423 495/343/423 494/341/423 482/172/423
f 484/175/424 496/344/424 495/343/424 483/174/424
f 485/176/425 497/345/425 496/344/425 484/175/425
f 486/177/426 498/346/426 497/345/426 485/176/426
f 487/178/427 499/347/427 498/346/427 486/177/427
f 488/179/428 500/348/428 499/347/428 487/178/428
f 489/180/429 501/349/429 500/348/429 488/179/429
f 490/181/430 502/350/430 501/349/430 489/180/430
f 491/182/431 503/351/431 502/350/431 490/181/431
f 492/171/432 504/340/432 503/351/432 491/182/432
f 505/1/433 517/170/433 528/171/433 516/4/433
f 506/5/434 518/172/434 517/173/434 505/8/434
f 507/9/435 519/174/435 518/172/435 506/5/435
f 508/11/436 520/175/436 519/174/436 507/9/436
f 509/13/437 521/176/437 520/175/437 508/11/437
f 510/15/438 522/177/438 521/176/438 509/13/438
f 511/17/439 523/178/439 522/177/439 510/15/439
f 512/19/440 524/179/440 523/178/440 511/17/440
f 513/21/441 525/180/441 524/179/441 512/19/441
f 514/23/442 526/181/442 525/180/442 513/21/442
f 515/25/443 527/182/443 526/181/443 514/23/443
f 516/4/444 528/171/444 527/182/444 515/25/444
f 517/170/445 529/339/445 540/340/445 528/171/445
f 518/172/446 530/341/446 529/342/446 517/173/446
f 519/174/447 531/343/447 530/341/447 518/172/447
f 520/175/448 532/344/448 531/343/448 519/174/448
f 521/176/449 533/345/449 532/344/449 520/175/449
f 522/177/450 534/346/450 533/345/450 521/176/450
f 523/178/451 535/347/451 534/346/451 522/177/451
f 524/179/452 536/348/452 535/347/452 523/178/452
f 525/180/453 537/349/453 536/348/453 524/179/453
f 526/181/454 538/350/454 537/349/454 525/180/454
f 527/182/455 539/351/455 538/350/455 526/181/455
f 528/171/456 540/340/456 539/351/456 527/182/456
